#N canvas 0 48 638 750 10;
#X declare -lib mrpeach;
#X obj 43 52 import mrpeach;
#X obj 155 116 routeOSC /player;
#X obj 155 138 routeOSC /action;
#X obj 155 50 udpreceive 1234;
#X obj 155 72 unpackOSC;
#X obj 155 94 routeOSC /plo;
#X obj 92 175 print;
#X obj 456 136 osc~ 440;
#X obj 456 178 *~;
#X msg 202 268 1;
#X msg 263 268 0;
#X obj 460 237 dac~;
#X obj 244 183 bng 15 250 50 0 empty empty empty 17 7 0 10 -262144
-1 -1;
#X obj 245 215 del 400;
#X connect 1 0 2 0;
#X connect 2 0 6 0;
#X connect 2 0 9 0;
#X connect 2 0 12 0;
#X connect 3 0 4 0;
#X connect 4 0 5 0;
#X connect 5 0 1 0;
#X connect 7 0 8 0;
#X connect 8 0 11 0;
#X connect 8 0 11 1;
#X connect 9 0 8 1;
#X connect 10 0 8 1;
#X connect 12 0 13 0;
#X connect 13 0 10 0;
